<svg xmlns="http://www.w3.org/2000/svg" enable-background="new 0 0 32 32" viewBox="0 0 32 32"><path d="M16 7c-4.9624 0-9 4.03711-9 9s4.0376 9 9 9c4.96289 0 9-4.03711 9-9S20.96289 7 16 7zM16 22c-3.30859 0-6-2.69141-6-6s2.69141-6 6-6 6 2.69141 6 6S19.30859 22 16 22zM16 5.63867c.82861 0 1.5-.67188 1.5-1.5V2c0-.82813-.67139-1.5-1.5-1.5S14.5 1.17188 14.5 2v2.13867C14.5 4.9668 15.17139 5.63867 16 5.63867zM6.55225 8.67285C6.84521 8.96582 7.229 9.1123 7.61279 9.1123s.76807-.14648 1.06104-.43945c.58545-.58594.58545-1.53613-.00049-2.12109L7.16113 5.04004c-.58594-.58594-1.53564-.58594-2.12158 0C4.4541 5.62598 4.4541 6.57617 5.04004 7.16113L6.55225 8.67285zM5.63818 16c0-.82813-.67139-1.5-1.5-1.5H2c-.82861 0-1.5.67188-1.5 1.5s.67139 1.5 1.5 1.5h2.13818C4.9668 17.5 5.63818 16.82813 5.63818 16zM6.55225 23.32715l-1.51221 1.51172c-.58594.58496-.58594 1.53516-.00049 2.12109.29297.29297.67725.43945 1.06104.43945s.76758-.14648 1.06055-.43945l1.51221-1.51172c.58594-.58496.58594-1.53516.00049-2.12109C8.08789 22.74121 7.13818 22.74121 6.55225 23.32715zM16 26.36133c-.82861 0-1.5.67188-1.5 1.5V30c0 .82813.67139 1.5 1.5 1.5s1.5-.67188 1.5-1.5v-2.13867C17.5 27.0332 16.82861 26.36133 16 26.36133zM25.44824 23.32715c-.58594-.58594-1.53516-.58594-2.12109 0s-.58594 1.53516 0 2.12109l1.51172 1.51172c.29297.29297.67676.43945 1.06055.43945s.76758-.14648 1.06055-.43945c.58594-.58594.58594-1.53516 0-2.12109L25.44824 23.32715zM30 14.5h-2.13867c-.82813 0-1.5.67188-1.5 1.5s.67188 1.5 1.5 1.5H30c.82813 0 1.5-.67188 1.5-1.5S30.82813 14.5 30 14.5zM24.3877 9.1123c.38379 0 .76758-.14648 1.06055-.43945l1.51172-1.51172c.58594-.58594.58594-1.53516 0-2.12109s-1.53516-.58594-2.12109 0l-1.51172 1.51172c-.58594.58594-.58594 1.53516 0 2.12109C23.62012 8.96582 24.00391 9.1123 24.3877 9.1123z"/></svg>