<svg width="128" height="128" viewBox="0 0 128 128" fill="none" xmlns="http://www.w3.org/2000/svg">
<circle cx="64" cy="64" r="50" fill="#BA68C8"/>
<path d="M38 91V36C38 35.4477 38.4477 35 39 35H52.9675C53.3004 35 53.6114 35.1656 53.7972 35.4418L70.1703 59.7801C70.7213 60.5993 72 60.2092 72 59.222V36C72 35.4477 72.4477 35 73 35H88C88.5523 35 89 35.4477 89 36V91C89 91.5523 88.5523 92 88 92H74.004C73.687 92 73.3888 91.8497 73.2002 91.5948L56.8038 69.4376C56.2303 68.6625 55 69.0682 55 70.0325V91C55 91.5523 54.5523 92 54 92H39C38.4477 92 38 91.5523 38 91Z" fill="white" stroke="white" stroke-width="3"/>
<circle cx="84.5" cy="39.5" r="2.5" fill="#BA68C8"/>
</svg>
